{"title":"Thunderbirds Are Go Complete Season 1 (2015) 1080P WEB-DL DD5 1","uid":14368647,"size":24406455381,"categoryP":"video","categoryS":"hd___tv_shows","magnet":"?xt=urn:btih:b9a5099326e756addc8aee96e00fe62782546304&amp;dn=Thunderbirds+Are+Go+Complete+Season+1+%282015%29+1080P+WEB-DL+DD5+1+&amp;tr=udp%3A%2F%2Ftracker.leechers-paradise.org%3A6969&amp;tr=udp%3A%2F%2Fzer0day.ch%3A1337&amp;tr=udp%3A%2F%2Fopen.demonii.com%3A1337&amp;tr=udp%3A%2F%2Ftracker.coppersurfer.tk%3A6969&amp;tr=udp%3A%2F%2Fexodus.desync.com%3A6969","seeders":4,"leechers":10,"uploader":"jmanwf","files":26,"time":1461143089,"description":"Remake of the hit 1960's &quot;Supermarionation&quot; television show. In the 21st century, Jeff Tracy, a former astronaut, amasses a colossal fortune and decides that he must use it to benefit others. His answer to this desire is to create International Rescue, a unique private emergency response service equipped with customized designed vehicles and equipment that enable the organization to react to any crisis whether it be in sea, air, land, or space. Jeff's five sons volunteer to operate as the pilots and field agents, as well as &quot;Brains&quot; (real name unknown) who acts as the teams' technical developer and engineer. In addition, Jeff's friend, Kyrano and his daughter Tanusha aka Kayo (based on the original series Tin-Tin character) agree to be the support staff. In addition to the field team, IR also maintains an intelligence network with Lady Penelope Creighton-Ward and her ex-con chauffeur, Parker as the chief agents in this arm. The series depicts this team as they answer various calls for.\r\n\r\n\r\nVideo\r\nID : 2\r\nFormat : AVC\r\nFormat/Info : Advanced Video Codec\r\nFormat profile :   \r\nFormat settings, CABAC : Yes\r\nFormat settings, ReFrames : 4 frames\r\nCodec ID : avc1\r\nCodec ID/Info : Advanced Video Coding\r\nDuration : 22mn 51s\r\nBit rate : 5 083 Kbps\r\nWidth : 1 912 pixels\r\nHeight : 1 072 pixels\r\nDisplay aspect ratio : 16:9\r\nFrame rate mode : Constant\r\nFrame rate : 25.000 fps\r\nColor space : YUV\r\nChroma subsampling : 4:2:0\r\nBit depth : 8 bits\r\nScan type : Progressive\r\nBits/(Pixel*Frame) : 0.099\r\nStream size : 831 MiB (91%)\r\nLanguage : English\r\nEncoded date : UTC 2016-04-12 21:07:23\r\nTagged date : UTC 2016-04-12 21:09:39\r\nColor range : Limited\r\nColor primaries : BT.709\r\nTransfer characteristics : BT.709\r\nMatrix coefficients : BT.709\r\n\r\nAudio #1\r\nID : 1\r\nFormat : AAC\r\nFormat/Info : Advanced Audio Codec\r\nFormat profile : LC\r\nCodec ID : 40\r\nDuration : 22mn 51s\r\nBit rate mode : Variable\r\nBit rate : 126 Kbps\r\nMaximum bit rate : 195 Kbps\r\nChannel(s) : 2 channels\r\nChannel positions : Front: L R\r\nSampling rate : 48.0 KHz\r\nFrame rate : 46.875 fps (1024 spf)\r\nCompression mode : Lossy\r\nStream size : 20.6 MiB (2%)\r\nLanguage : English\r\nDefault : Yes\r\nAlternate group : 1\r\nEncoded date : UTC 2016-04-12 21:07:23\r\nTagged date : UTC 2016-04-12 21:09:39\r\n\r\nAudio #2\r\nID : 3\r\nFormat : AC-3\r\nFormat/Info : Audio Coding 3\r\nMode extension : CM (complete main)\r\nFormat settings, Endianness : Big\r\nCodec ID : ac-3\r\nDuration : 22mn 51s\r\nBit rate mode : Constant\r\nBit rate : 384 Kbps\r\nChannel(s) : 6 channels\r\nChannel positions : Front: L C R, Side: L R, LFE\r\nSampling rate : 48.0 KHz\r\nFrame rate : 31.250 fps (1536 spf)\r\nBit depth : 16 bits\r\nCompression mode : Lossy\r\nStream size : 62.8 MiB (7%)\r\nLanguage : English\r\nDefault : No\r\nAlternate group : 1\r\nEncoded date : UTC 2016-04-12 21:07:23\r\nTagged date : UTC 2016-04-12 21:09:39\r\n\r\n\r\n\r\nALL 26 Episodes in MP4","torrent":{"xt":"urn:btih:b9a5099326e756addc8aee96e00fe62782546304","amp;dn":"Thunderbirds+Are+Go+Complete+Season+1+%282015%29+1080P+WEB-DL+DD5+1+","amp;tr":["udp%3A%2F%2Ftracker.leechers-paradise.org%3A6969","udp%3A%2F%2Fzer0day.ch%3A1337","udp%3A%2F%2Fopen.demonii.com%3A1337","udp%3A%2F%2Ftracker.coppersurfer.tk%3A6969","udp%3A%2F%2Fexodus.desync.com%3A6969"],"infoHash":"b9a5099326e756addc8aee96e00fe62782546304","infoHashBuffer":{"type":"Buffer","data":[185,165,9,147,38,231,86,173,220,138,238,150,224,15,230,39,130,84,99,4]},"announce":[],"urlList":[]}}